<?xml version="1.0" encoding="UTF-8" standalone="no"?>
<!DOCTYPE svg PUBLIC "-//W3C//DTD SVG 1.1//EN" "http://www.w3.org/Graphics/SVG/1.1/DTD/svg11.dtd">
<svg width="100%" height="100%" viewBox="0 0 24 24" version="1.1" xmlns="http://www.w3.org/2000/svg" xmlns:xlink="http://www.w3.org/1999/xlink" xml:space="preserve" xmlns:serif="http://www.serif.com/" style="fill-rule:evenodd;clip-rule:evenodd;stroke-linejoin:round;stroke-miterlimit:2;">
    <path d="M9,19L5,19L5,17L9,17L9,19ZM11.946,14.964L15.053,18.069L10.941,19L11.946,14.964ZM24,9.125L16.102,17.121L12.9,13.919L20.798,5.924L24,9.125ZM18,18.045L18,22L2,22L2,2L9.362,2C13.518,2 12,8 12,8C12,8 14.313,7.365 16.067,7.867L18.019,5.891C15.805,3.084 12.257,0 10.189,0L-0,0L-0,24L20,24L20,16.02L18,18.045Z" style="fill:rgb(148,148,148);fill-rule:nonzero;"/>
</svg>
